<svg version="1.2" xmlns="http://www.w3.org/2000/svg" viewBox="0 0 18 23" width="18" height="23">
	<title>AddToFav-svg</title>
	<style>
		.s0 { fill: gold;stroke: gold;stroke-width: 1.8 } 
		.s1 { fill: white;stroke: white;stroke-linecap: round;stroke-width: 1.8 } 
	</style>
	<path id="Layer" class="s0" d="m15.9 1.5c0.3 0.3 0.5 0.8 0.5 1.2v17.6c0 0.8-0.4 1.1-0.9 1.1q-0.5 0-0.8-0.3l-5.3-4.5q-0.3-0.3-0.7-0.3-0.3 0-0.6 0.3l-5.3 4.5q-0.4 0.3-0.8 0.3-0.3 0-0.5-0.1-0.1-0.1-0.3-0.3-0.2-0.3-0.2-0.7v-17.6c0-0.4 0.2-0.9 0.6-1.2 0.3-0.3 0.7-0.5 1.2-0.5h11.9c0.4 0 0.9 0.2 1.2 0.5z"/>
	<path id="Layer" class="s1" d="m5.1 5.1h7.2"/>
</svg>