<svg width="18" height="23" viewBox="0 0 18 23" fill="none" xmlns="http://www.w3.org/2000/svg">
    <path
        d="M14.6603 1H2.8123C2.34496 0.999064 1.89537 1.17892 1.55763 1.50194C1.21989 1.82495 1.02018 2.26609 1.0003 2.733V20.26C0.994431 20.5371 1.07442 20.8092 1.2293 21.039C1.31125 21.1571 1.42071 21.2536 1.54824 21.3199C1.67577 21.3863 1.81753 21.4207 1.9613 21.42C2.27409 21.4052 2.57143 21.2797 2.8003 21.066L8.1003 16.566C8.28442 16.4232 8.5108 16.3457 8.7438 16.3457C8.9768 16.3457 9.20319 16.4232 9.3873 16.566L14.6703 21.066C14.8919 21.2794 15.1831 21.4055 15.4903 21.421C15.9553 21.421 16.4083 21.062 16.4083 20.261V2.733C16.4033 2.27234 16.2171 1.83217 15.8899 1.50782C15.5627 1.18347 15.121 1.00103 14.6603 1V1Z"
        stroke="#fff" stroke-width="1.8" />
    <path d="M5.05429 5.054H12.2613" stroke="#fff" stroke-width="1.8" stroke-linecap="round" />
</svg>