<svg width="18" height="23" viewBox="0 0 18 23" fill="none" xmlns="http://www.w3.org/2000/svg">
<path d="M15.305 1.59198H3.45702C2.98968 1.59104 2.54009 1.7709 2.20235 2.09392C1.86461 2.41693 1.6649 2.85807 1.64502 3.32498V20.852C1.63914 21.1291 1.71914 21.4012 1.87402 21.631C1.95596 21.7491 2.06542 21.8455 2.19295 21.9119C2.32048 21.9783 2.46225 22.0126 2.60602 22.012C2.9188 21.9972 3.21615 21.8717 3.44502 21.658L8.74502 17.158C8.92913 17.0152 9.15551 16.9377 9.38852 16.9377C9.62152 16.9377 9.8479 17.0152 10.032 17.158L15.315 21.658C15.5366 21.8714 15.8278 21.9974 16.135 22.013C16.6 22.013 17.053 21.654 17.053 20.853V3.32498C17.048 2.86432 16.8618 2.42415 16.5346 2.0998C16.2075 1.77545 15.7657 1.59301 15.305 1.59198V1.59198Z" stroke="#97AABD" stroke-width="1.8"/>
</svg>
