<svg width="16" height="17" viewBox="0 0 16 17" fill="none" xmlns="http://www.w3.org/2000/svg">
    <path
        d="M14.279 5.7627C14.732 6.02688 15.1078 6.40517 15.369 6.85988C15.6302 7.31458 15.7677 7.82981 15.7677 8.3542C15.7677 8.87859 15.6302 9.39382 15.369 9.84852C15.1078 10.3032 14.732 10.6815 14.279 10.9457L5.23299 16.2227C4.77708 16.4887 4.25904 16.6298 3.73118 16.6316C3.20332 16.6334 2.68433 16.4958 2.22662 16.2329C1.76891 15.97 1.38868 15.5909 1.12432 15.134C0.859962 14.6771 0.720837 14.1586 0.720993 13.6307V3.0767C0.721012 2.54892 0.860266 2.03049 1.12469 1.57374C1.38912 1.11698 1.76937 0.73807 2.22705 0.475247C2.68473 0.212425 3.20365 0.0749953 3.73143 0.0768309C4.2592 0.0786665 4.77715 0.219702 5.23299 0.485702L14.279 5.7627Z"
        fill="white" />
</svg>