<svg width="27" height="25" viewBox="0 0 27 25" fill="none" xmlns="http://www.w3.org/2000/svg">
<path d="M25.994 13.134L22.606 5.87701C22.5575 5.77778 22.4797 5.69581 22.3831 5.64217C22.2866 5.58852 22.1759 5.56579 22.066 5.57701H19.185C19.0259 5.57701 18.8733 5.64023 18.7607 5.75275C18.6482 5.86527 18.585 6.01788 18.585 6.17701C18.585 6.33614 18.6482 6.48875 18.7607 6.60127C18.8733 6.7138 19.0259 6.77701 19.185 6.77701H21.674L24.463 12.777H21.044C20.285 12.7729 19.5411 12.9888 18.9022 13.3986C18.2633 13.8084 17.7568 14.3945 17.444 15.086C17.2172 15.5618 16.8602 15.9637 16.4144 16.2449C15.9685 16.5261 15.4521 16.6753 14.925 16.675H11.449C10.9216 16.675 10.4049 16.5254 9.95907 16.2436C9.5132 15.9618 9.15638 15.5594 8.93001 15.083C8.61718 14.3915 8.1107 13.8054 7.47181 13.3956C6.83292 12.9858 6.089 12.7699 5.33001 12.774H1.97301L5.27301 6.77401H7.19401C7.35314 6.77401 7.50575 6.7108 7.61827 6.59828C7.73079 6.48575 7.79401 6.33314 7.79401 6.17401C7.79401 6.01488 7.73079 5.86227 7.61827 5.74975C7.50575 5.63723 7.35314 5.57401 7.19401 5.57401H4.91201C4.80575 5.56395 4.69879 5.58391 4.60332 5.63165C4.50785 5.67938 4.42771 5.75296 4.37201 5.84401L0.414006 13.104C0.344573 13.1656 0.301583 13.2515 0.294006 13.344V20.811C0.317002 21.6202 0.650745 22.3895 1.22595 22.9591C1.80115 23.5287 2.57363 23.8549 3.38301 23.87H22.994C23.8035 23.8552 24.5761 23.529 25.1513 22.9593C25.7266 22.3897 26.0603 21.6203 26.083 20.811V13.344C26.0719 13.2675 26.0412 13.1952 25.994 13.134ZM24.884 20.81C24.8615 21.301 24.6544 21.7653 24.3041 22.11C23.9538 22.4547 23.4862 22.6544 22.995 22.669H3.38301C2.89193 22.6544 2.42448 22.4549 2.07422 22.1104C1.72396 21.7659 1.51673 21.3018 1.49401 20.811V13.974H5.33201C5.85913 13.9738 6.37553 14.1229 6.82137 14.4041C7.2672 14.6854 7.62421 15.0872 7.85101 15.563C8.16383 16.2546 8.67032 16.8406 9.3092 17.2504C9.94809 17.6602 10.692 17.8761 11.451 17.872H14.929C15.688 17.8761 16.4319 17.6602 17.0708 17.2504C17.7097 16.8406 18.2162 16.2546 18.529 15.563C18.7558 15.0872 19.1128 14.6854 19.5586 14.4041C20.0045 14.1229 20.5209 13.9738 21.048 13.974H24.886V20.811L24.884 20.81Z" fill="#97AABD" stroke="#97AABD" stroke-width="0.5"/>
<path d="M12.769 14.334C12.871 14.4438 13.0121 14.5091 13.1618 14.5157C13.3116 14.5222 13.4578 14.4695 13.569 14.369C13.581 14.358 13.593 14.346 13.604 14.334L17.682 10.226C17.7687 10.1105 17.8107 9.96755 17.8005 9.82348C17.7903 9.67941 17.7284 9.54388 17.6263 9.44175C17.5242 9.33962 17.3886 9.27776 17.2446 9.26752C17.1005 9.25728 16.9576 9.29935 16.842 9.38601L13.783 12.445V1.05001C13.783 0.890883 13.7198 0.73827 13.6073 0.625749C13.4948 0.513227 13.3422 0.450012 13.183 0.450012C13.0239 0.450012 12.8713 0.513227 12.7588 0.625749C12.6462 0.73827 12.583 0.890883 12.583 1.05001V12.444L9.52402 9.38501C9.40847 9.29836 9.26556 9.25628 9.12149 9.26652C8.97742 9.27676 8.84189 9.33862 8.73976 9.44075C8.63763 9.54288 8.57577 9.67841 8.56554 9.82248C8.5553 9.96654 8.59736 10.1095 8.68402 10.225L12.769 14.334Z" fill="#97AABD" stroke="#97AABD" stroke-width="0.5"/>
</svg>
