<svg width="88" height="23" viewBox="0 0 88 23" fill="none" xmlns="http://www.w3.org/2000/svg">
<path d="M8.273 20.5864V17.283C8.27591 16.8772 8.44576 16.489 8.7455 16.203C9.04525 15.9171 9.45056 15.7566 9.873 15.7566H13.105C13.5289 15.7563 13.9358 15.9168 14.237 16.2033C14.3855 16.3446 14.5034 16.5128 14.5839 16.6981C14.6644 16.8834 14.7059 17.0822 14.706 17.283V20.5855C14.7047 20.7593 14.7394 20.9316 14.808 21.0924C14.8767 21.2531 14.978 21.3992 15.106 21.522C15.3666 21.7695 15.7186 21.9076 16.085 21.9063H18.29C19.3186 21.9094 20.3066 21.5212 21.038 20.8266C21.3986 20.4843 21.6849 20.0767 21.8804 19.6274C22.0759 19.1781 22.1767 18.696 22.177 18.209V8.79529C22.1766 8.40278 22.0862 8.01517 21.9121 7.66004C21.7381 7.30491 21.4847 6.99099 21.17 6.74061L13.67 1.03764C13.0363 0.552148 12.2461 0.294194 11.4356 0.308222C10.6251 0.322249 9.84513 0.607379 9.23 1.11448L1.899 6.75021C1.56969 6.99308 1.30115 7.30367 1.11305 7.6592C0.924964 8.01474 0.822099 8.4062 0.812004 8.8049L0.812004 18.2051C0.813839 18.6936 0.91581 19.1769 1.11209 19.6275C1.30838 20.078 1.59513 20.4871 1.95598 20.8312C2.31683 21.1753 2.74471 21.4478 3.21518 21.6331C3.68566 21.8184 4.18952 21.9128 4.698 21.9111H6.853C7.21827 21.9121 7.56917 21.7745 7.82931 21.5282C8.08946 21.2819 8.23779 20.9469 8.242 20.596L8.273 20.5864Z" fill="#97AABD"/>
<path d="M52.4766 18.4496H49.9453V13.8871H45.3047V18.4496H42.7813V7.24646H45.3047V11.7152H49.9453V7.24646H52.4766V18.4496ZM58.6172 18.6449C57.2839 18.6449 56.2344 18.2725 55.4688 17.5277C54.7083 16.7777 54.3281 15.7621 54.3281 14.4808C54.3281 13.1579 54.724 12.1241 55.5156 11.3793C56.3073 10.6293 57.3776 10.2543 58.7266 10.2543C60.0547 10.2543 61.0964 10.6293 61.8516 11.3793C62.6068 12.1241 62.9844 13.111 62.9844 14.3402C62.9844 15.6683 62.5938 16.7178 61.8125 17.4886C61.0365 18.2595 59.9714 18.6449 58.6172 18.6449ZM58.6797 12.1449C58.0964 12.1449 57.6432 12.3454 57.3203 12.7465C56.9974 13.1475 56.8359 13.7152 56.8359 14.4496C56.8359 15.986 57.4557 16.7543 58.6953 16.7543C59.8776 16.7543 60.4688 15.9652 60.4688 14.3871C60.4688 12.8923 59.8724 12.1449 58.6797 12.1449ZM77.2891 18.4496H74.8281V13.8871C74.8281 12.7256 74.401 12.1449 73.5469 12.1449C73.1406 12.1449 72.8099 12.3194 72.5547 12.6683C72.2995 13.0173 72.1719 13.4522 72.1719 13.973V18.4496H69.7031V13.8402C69.7031 12.71 69.2839 12.1449 68.4453 12.1449C68.0234 12.1449 67.6849 12.3116 67.4297 12.6449C67.1797 12.9782 67.0547 13.4314 67.0547 14.0043V18.4496H64.5859V10.4496H67.0547V11.6996H67.0859C67.3411 11.2725 67.6979 10.9261 68.1563 10.6605C68.6198 10.3897 69.125 10.2543 69.6719 10.2543C70.8021 10.2543 71.5755 10.7517 71.9922 11.7465C72.6016 10.7517 73.4974 10.2543 74.6797 10.2543C76.4193 10.2543 77.2891 11.3272 77.2891 13.473V18.4496ZM86.4297 15.1527H81.2109C81.2943 16.3142 82.026 16.8949 83.4063 16.8949C84.2865 16.8949 85.0599 16.6866 85.7266 16.2699V18.0511C84.987 18.447 84.026 18.6449 82.8438 18.6449C81.5521 18.6449 80.5495 18.2881 79.8359 17.5746C79.1224 16.8558 78.7656 15.8558 78.7656 14.5746C78.7656 13.2465 79.151 12.1944 79.9219 11.4183C80.6927 10.6423 81.6406 10.2543 82.7656 10.2543C83.9323 10.2543 84.8333 10.6006 85.4688 11.2933C86.1094 11.986 86.4297 12.9261 86.4297 14.1136V15.1527ZM84.1406 13.6371C84.1406 12.4913 83.6771 11.9183 82.75 11.9183C82.3542 11.9183 82.0104 12.0824 81.7188 12.4105C81.4323 12.7386 81.2578 13.1475 81.1953 13.6371H84.1406Z" fill="#97AABD"/>
</svg>
