<svg width="88" height="24" viewBox="0 0 88 24" fill="none" xmlns="http://www.w3.org/2000/svg">
<path d="M8.27301 21.969V18.53C8.27592 18.1075 8.44577 17.7034 8.74551 17.4057C9.04526 17.108 9.45056 16.941 9.87301 16.941H13.105C13.5289 16.9406 13.9358 17.1077 14.237 17.406C14.3855 17.5531 14.5034 17.7281 14.5839 17.9211C14.6644 18.114 14.7059 18.3209 14.706 18.53V21.968C14.7047 22.1489 14.7394 22.3283 14.808 22.4957C14.8767 22.6631 14.978 22.8151 15.106 22.943C15.3666 23.2006 15.7186 23.3444 16.085 23.343H18.29C19.3186 23.3462 20.3066 22.9421 21.038 22.219C21.3986 21.8626 21.6849 21.4383 21.8804 20.9706C22.0759 20.5028 22.1767 20.0009 22.177 19.494V9.69398C22.1766 9.28536 22.0862 8.88184 21.9121 8.51214C21.7381 8.14244 21.4847 7.81564 21.17 7.55498L13.67 1.61798C13.0363 1.11256 12.2461 0.844025 11.4356 0.858628C10.6251 0.873231 9.84514 1.17006 9.23001 1.69798L1.89901 7.56498C1.5697 7.81781 1.30115 8.14114 1.11306 8.51127C0.924971 8.88139 0.822107 9.28892 0.812012 9.70398L0.812012 19.49C0.813847 19.9985 0.915817 20.5016 1.1121 20.9707C1.30838 21.4397 1.59514 21.8656 1.95599 22.2238C2.31684 22.5821 2.74471 22.8657 3.21519 23.0586C3.68567 23.2515 4.18953 23.3498 4.69801 23.348H6.85301C7.21827 23.3491 7.56917 23.2058 7.82932 22.9494C8.08947 22.693 8.23779 22.3442 8.24201 21.979L8.27301 21.969Z" fill="#FC2121"/>
<path d="M52.4766 19H49.9453V14.4375H45.3047V19H42.7812V7.79684H45.3047V12.2656H49.9453V7.79684H52.4766V19ZM58.6172 19.1953C57.2839 19.1953 56.2344 18.8229 55.4688 18.0781C54.7083 17.3281 54.3281 16.3125 54.3281 15.0312C54.3281 13.7083 54.724 12.6744 55.5156 11.9297C56.3073 11.1797 57.3776 10.8047 58.7266 10.8047C60.0547 10.8047 61.0964 11.1797 61.8516 11.9297C62.6068 12.6744 62.9844 13.6614 62.9844 14.8906C62.9844 16.2187 62.5938 17.2682 61.8125 18.039C61.0365 18.8099 59.9714 19.1953 58.6172 19.1953ZM58.6797 12.6953C58.0964 12.6953 57.6432 12.8958 57.3203 13.2968C56.9974 13.6979 56.8359 14.2656 56.8359 15C56.8359 16.5364 57.4557 17.3047 58.6953 17.3047C59.8776 17.3047 60.4688 16.5156 60.4688 14.9375C60.4688 13.4427 59.8724 12.6953 58.6797 12.6953ZM77.2891 19H74.8281V14.4375C74.8281 13.276 74.401 12.6953 73.5469 12.6953C73.1406 12.6953 72.8099 12.8698 72.5547 13.2187C72.2995 13.5677 72.1719 14.0026 72.1719 14.5234V19H69.7031V14.3906C69.7031 13.2604 69.2839 12.6953 68.4453 12.6953C68.0234 12.6953 67.6849 12.8619 67.4297 13.1953C67.1797 13.5286 67.0547 13.9817 67.0547 14.5547V19H64.5859V11H67.0547V12.25H67.0859C67.3411 11.8229 67.6979 11.4765 68.1562 11.2109C68.6198 10.9401 69.125 10.8047 69.6719 10.8047C70.8021 10.8047 71.5755 11.3021 71.9922 12.2968C72.6016 11.3021 73.4974 10.8047 74.6797 10.8047C76.4193 10.8047 77.2891 11.8776 77.2891 14.0234V19ZM86.4297 15.7031H81.2109C81.2943 16.8646 82.026 17.4453 83.4062 17.4453C84.2865 17.4453 85.0599 17.2369 85.7266 16.8203V18.6015C84.987 18.9974 84.026 19.1953 82.8438 19.1953C81.5521 19.1953 80.5495 18.8385 79.8359 18.125C79.1224 17.4062 78.7656 16.4062 78.7656 15.125C78.7656 13.7968 79.151 12.7448 79.9219 11.9687C80.6927 11.1927 81.6406 10.8047 82.7656 10.8047C83.9323 10.8047 84.8333 11.151 85.4688 11.8437C86.1094 12.5364 86.4297 13.4765 86.4297 14.664V15.7031ZM84.1406 14.1875C84.1406 13.0416 83.6771 12.4687 82.75 12.4687C82.3542 12.4687 82.0104 12.6328 81.7188 12.9609C81.4323 13.289 81.2578 13.6979 81.1953 14.1875H84.1406Z" fill="#FC2121"/>
</svg>
