<svg width="96" height="24" viewBox="0 0 96 24" fill="none" xmlns="http://www.w3.org/2000/svg">
<path opacity="0.5" d="M8.69703 21.382C13.4666 21.382 17.333 17.5155 17.333 12.746C17.333 7.97645 13.4666 4.10999 8.69703 4.10999C3.9275 4.10999 0.0610352 7.97645 0.0610352 12.746C0.0610352 17.5155 3.9275 21.382 8.69703 21.382Z" fill="#FC2121"/>
<path d="M16.273 21.969V18.53C16.2759 18.1075 16.4458 17.7034 16.7455 17.4057C17.0453 17.108 17.4506 16.941 17.873 16.941H21.105C21.5289 16.9406 21.9358 17.1077 22.237 17.406C22.3855 17.5531 22.5034 17.7281 22.5839 17.9211C22.6644 18.114 22.7059 18.3209 22.706 18.53V21.968C22.7047 22.1489 22.7394 22.3283 22.808 22.4957C22.8767 22.6631 22.978 22.8151 23.106 22.943C23.3666 23.2006 23.7186 23.3444 24.085 23.343H26.29C27.3186 23.3462 28.3066 22.9421 29.038 22.219C29.3986 21.8626 29.6849 21.4383 29.8804 20.9706C30.0759 20.5028 30.1767 20.0009 30.177 19.494V9.69398C30.1766 9.28536 30.0862 8.88184 29.9121 8.51214C29.7381 8.14244 29.4847 7.81564 29.17 7.55498L21.67 1.61798C21.0363 1.11256 20.2461 0.844025 19.4356 0.858628C18.6251 0.873231 17.8451 1.17006 17.23 1.69798L9.89901 7.56498C9.5697 7.81781 9.30115 8.14114 9.11306 8.51127C8.92497 8.88139 8.82211 9.28892 8.81201 9.70398V19.49C8.81385 19.9985 8.91582 20.5016 9.1121 20.9707C9.30838 21.4397 9.59514 21.8656 9.95599 22.2238C10.3168 22.582 10.7447 22.8657 11.2152 23.0586C11.6857 23.2515 12.1895 23.3498 12.698 23.348H14.853C15.2183 23.3491 15.5692 23.2058 15.8293 22.9494C16.0895 22.693 16.2378 22.3442 16.242 21.979L16.273 21.969Z" fill="#FC2121"/>
<path d="M60.4766 19H57.9453V14.4375H53.3047V19H50.7812V7.79684H53.3047V12.2656H57.9453V7.79684H60.4766V19ZM66.6172 19.1953C65.2839 19.1953 64.2344 18.8229 63.4688 18.0781C62.7083 17.3281 62.3281 16.3125 62.3281 15.0312C62.3281 13.7083 62.724 12.6744 63.5156 11.9297C64.3073 11.1797 65.3776 10.8047 66.7266 10.8047C68.0547 10.8047 69.0964 11.1797 69.8516 11.9297C70.6068 12.6744 70.9844 13.6614 70.9844 14.8906C70.9844 16.2187 70.5938 17.2682 69.8125 18.039C69.0365 18.8099 67.9714 19.1953 66.6172 19.1953ZM66.6797 12.6953C66.0964 12.6953 65.6432 12.8958 65.3203 13.2968C64.9974 13.6979 64.8359 14.2656 64.8359 15C64.8359 16.5364 65.4557 17.3047 66.6953 17.3047C67.8776 17.3047 68.4688 16.5156 68.4688 14.9375C68.4688 13.4427 67.8724 12.6953 66.6797 12.6953ZM85.2891 19H82.8281V14.4375C82.8281 13.276 82.401 12.6953 81.5469 12.6953C81.1406 12.6953 80.8099 12.8698 80.5547 13.2187C80.2995 13.5677 80.1719 14.0026 80.1719 14.5234V19H77.7031V14.3906C77.7031 13.2604 77.2839 12.6953 76.4453 12.6953C76.0234 12.6953 75.6849 12.8619 75.4297 13.1953C75.1797 13.5286 75.0547 13.9817 75.0547 14.5547V19H72.5859V11H75.0547V12.25H75.0859C75.3411 11.8229 75.6979 11.4765 76.1562 11.2109C76.6198 10.9401 77.125 10.8047 77.6719 10.8047C78.8021 10.8047 79.5755 11.3021 79.9922 12.2968C80.6016 11.3021 81.4974 10.8047 82.6797 10.8047C84.4193 10.8047 85.2891 11.8776 85.2891 14.0234V19ZM94.4297 15.7031H89.2109C89.2943 16.8646 90.026 17.4453 91.4062 17.4453C92.2865 17.4453 93.0599 17.2369 93.7266 16.8203V18.6015C92.987 18.9974 92.026 19.1953 90.8438 19.1953C89.5521 19.1953 88.5495 18.8385 87.8359 18.125C87.1224 17.4062 86.7656 16.4062 86.7656 15.125C86.7656 13.7968 87.151 12.7448 87.9219 11.9687C88.6927 11.1927 89.6406 10.8047 90.7656 10.8047C91.9323 10.8047 92.8333 11.151 93.4688 11.8437C94.1094 12.5364 94.4297 13.4765 94.4297 14.664V15.7031ZM92.1406 14.1875C92.1406 13.0416 91.6771 12.4687 90.75 12.4687C90.3542 12.4687 90.0104 12.6328 89.7188 12.9609C89.4323 13.289 89.2578 13.6979 89.1953 14.1875H92.1406Z" fill="#FC2121"/>
</svg>
