<svg width="18" height="22" viewBox="0 0 18 22" fill="none" xmlns="http://www.w3.org/2000/svg">
<path d="M0.5 18.233C0.5 15.239 4.416 14.492 9 14.492C13.61 14.492 17.5 15.267 17.5 18.259C17.5 21.251 13.584 22 9 22C4.391 22 0.5 21.225 0.5 18.233ZM3.375 5.82C3.3591 5.0677 3.4923 4.31969 3.76694 3.61913C4.04158 2.91857 4.45221 2.27932 4.97514 1.73826C5.49808 1.1972 6.12297 0.765031 6.81376 0.466688C7.50456 0.168345 8.24759 0.00973281 9 0C9.75241 0.00973281 10.4954 0.168345 11.1862 0.466688C11.877 0.765031 12.5019 1.1972 13.0249 1.73826C13.5478 2.27932 13.9584 2.91857 14.2331 3.61913C14.5077 4.31969 14.6409 5.0677 14.625 5.82C14.6405 6.57229 14.507 7.32022 14.2323 8.02072C13.9575 8.72121 13.5469 9.36044 13.0241 9.90158C12.5012 10.4427 11.8765 10.8751 11.1859 11.1738C10.4953 11.4725 9.75238 11.6316 9 11.642C8.24766 11.6315 7.50483 11.4723 6.81426 11.1735C6.1237 10.8748 5.49903 10.4424 4.97623 9.90129C4.45342 9.36017 4.0428 8.721 3.768 8.02057C3.49319 7.32013 3.35963 6.57226 3.375 5.82Z" fill="#97AABD"/>
</svg>
