<svg width="18" height="18" viewBox="0 0 18 18" fill="none" xmlns="http://www.w3.org/2000/svg">
<path d="M7.87682 0.495651C7.96492 0.344811 8.091 0.219681 8.2425 0.13272C8.394 0.0457587 8.56564 0 8.74032 0C8.915 0 9.08664 0.0457587 9.23814 0.13272C9.38964 0.219681 9.51572 0.344811 9.60382 0.495651L11.8538 4.34665C11.9208 4.46131 12.0099 4.56148 12.116 4.64131C12.2222 4.72115 12.3431 4.77906 12.4718 4.81165L16.7248 5.89065C16.8877 5.93184 17.0375 6.01339 17.1606 6.12778C17.2836 6.24217 17.3758 6.38571 17.4287 6.54515C17.4817 6.70459 17.4936 6.87479 17.4633 7.04004C17.4331 7.20529 17.3617 7.36026 17.2558 7.49065L14.3698 11.0507C14.2104 11.2477 14.1318 11.4979 14.1498 11.7507L14.4898 16.3647C14.5029 16.5369 14.4712 16.7096 14.3977 16.8659C14.3242 17.0222 14.2114 17.1568 14.0705 17.2566C13.9295 17.3564 13.765 17.418 13.5932 17.4353C13.4213 17.4527 13.2479 17.4252 13.0898 17.3556L9.13982 15.6417C9.01365 15.5866 8.87748 15.5582 8.73982 15.5582C8.60216 15.5582 8.46599 15.5866 8.33982 15.6417L4.38582 17.3587C4.22773 17.4282 4.05431 17.4557 3.88245 17.4383C3.7106 17.421 3.54617 17.3594 3.40519 17.2596C3.26421 17.1598 3.15148 17.0252 3.07798 16.8689C3.00449 16.7126 2.97274 16.5399 2.98582 16.3677L3.32582 11.7537C3.34383 11.5009 3.2652 11.2507 3.10582 11.0537L0.22382 7.48965C0.117898 7.35926 0.046532 7.20429 0.0163091 7.03904C-0.0139138 6.87379 -0.00201922 6.70359 0.0508948 6.54415C0.103809 6.38471 0.196037 6.24117 0.319065 6.12678C0.442093 6.01239 0.591956 5.93084 0.75482 5.88965L5.00882 4.81165C5.13754 4.77906 5.25849 4.72115 5.36459 4.64131C5.4707 4.56148 5.55984 4.46131 5.62682 4.34665L7.87682 0.495651Z" fill="#FFDD00"/>
</svg>
