<svg width="17" height="17" viewBox="0 0 17 17" fill="none" xmlns="http://www.w3.org/2000/svg">
<path d="M7.21281 0.534409C7.29764 0.373158 7.42492 0.23815 7.58089 0.143965C7.73687 0.0497807 7.91561 0 8.09781 0C8.28002 0 8.45876 0.0497807 8.61473 0.143965C8.7707 0.23815 8.89798 0.373158 8.98281 0.534409L10.8468 4.08141C10.9158 4.21276 11.0131 4.32713 11.1318 4.4162C11.2504 4.50528 11.3874 4.56683 11.5328 4.59641L15.3978 5.37941C15.5701 5.41438 15.7302 5.49417 15.8619 5.61075C15.9935 5.72732 16.0921 5.87655 16.1477 6.04338C16.2033 6.21021 16.2139 6.38875 16.1784 6.56099C16.143 6.73323 16.0627 6.89307 15.9458 7.02441L13.1978 10.1054C13.1039 10.211 13.0334 10.3353 12.991 10.47C12.9486 10.6048 12.9352 10.7471 12.9518 10.8874L13.4398 15.0224C13.461 15.2011 13.4336 15.3823 13.3605 15.5467C13.2874 15.7112 13.1712 15.8529 13.0243 15.9568C12.8773 16.0607 12.705 16.1231 12.5256 16.1373C12.3462 16.1515 12.1663 16.117 12.0048 16.0374L8.53881 14.3294C8.40145 14.2618 8.2504 14.2267 8.09731 14.2267C7.94422 14.2267 7.79317 14.2618 7.65581 14.3294L4.18581 16.0374C4.02436 16.117 3.84443 16.1515 3.665 16.1373C3.48558 16.1231 3.31331 16.0607 3.16636 15.9568C3.01942 15.8529 2.90325 15.7112 2.83011 15.5467C2.75697 15.3823 2.72958 15.2011 2.75081 15.0224L3.23881 10.8874C3.25538 10.7471 3.24203 10.6048 3.19963 10.47C3.15723 10.3353 3.08674 10.211 2.99281 10.1054L0.252812 7.02341C0.13615 6.89226 0.0560616 6.73272 0.0205957 6.56082C-0.0148702 6.38891 -0.00446422 6.2107 0.050768 6.04409C0.106 5.87748 0.204113 5.72835 0.335245 5.61167C0.466378 5.495 0.625911 5.41489 0.797812 5.37941L4.65881 4.59641C4.8042 4.56683 4.94119 4.50528 5.05984 4.4162C5.17849 4.32713 5.27583 4.21276 5.34481 4.08141L7.21281 0.534409Z" fill="#FFD500"/>
</svg>
